<svg width="136" height="32" viewBox="0 0 136 32" fill="none" xmlns="http://www.w3.org/2000/svg">
<circle cx="16" cy="16" r="16" fill="#270F0F"/>
<path d="M61.272 9.008V9.488C60.92 9.616 60.544 9.896 60.144 10.328C59.76 10.76 59.4 11.432 59.064 12.344L54 26.048C53.872 26.032 53.736 26.024 53.592 26.024C53.448 26.024 53.304 26.024 53.16 26.024C53.032 26.024 52.896 26.024 52.752 26.024C52.608 26.024 52.472 26.032 52.344 26.048L46.224 11.024C46 10.448 45.752 10.056 45.48 9.848C45.208 9.624 44.952 9.504 44.712 9.488V9.008C45.192 9.024 45.752 9.04 46.392 9.056C47.048 9.072 47.704 9.08 48.36 9.08C49.096 9.08 49.784 9.072 50.424 9.056C51.08 9.04 51.608 9.024 52.008 9.008V9.488C51.496 9.504 51.096 9.568 50.808 9.68C50.52 9.776 50.36 9.968 50.328 10.256C50.296 10.528 50.392 10.944 50.616 11.504L54.984 22.616L54.48 23.216L57.792 14.288C58.224 13.088 58.448 12.144 58.464 11.456C58.48 10.768 58.312 10.272 57.96 9.968C57.608 9.664 57.104 9.504 56.448 9.488V9.008C56.992 9.024 57.504 9.04 57.984 9.056C58.464 9.072 58.952 9.08 59.448 9.08C59.8 9.08 60.128 9.072 60.432 9.056C60.752 9.04 61.032 9.024 61.272 9.008ZM66.2289 13.256C67.6369 13.256 68.7409 13.672 69.5409 14.504C70.3409 15.336 70.7409 16.696 70.7409 18.584H62.8449L62.7969 18.128H67.7169C67.7329 17.344 67.6849 16.624 67.5729 15.968C67.4609 15.296 67.2849 14.76 67.0449 14.36C66.8049 13.96 66.4849 13.76 66.0849 13.76C65.5249 13.76 65.0449 14.112 64.6449 14.816C64.2609 15.52 64.0289 16.688 63.9489 18.32L64.0209 18.464C64.0049 18.656 63.9889 18.856 63.9729 19.064C63.9729 19.272 63.9729 19.488 63.9729 19.712C63.9729 20.816 64.1249 21.712 64.4289 22.4C64.7489 23.088 65.1489 23.592 65.6289 23.912C66.1089 24.216 66.5969 24.368 67.0929 24.368C67.4289 24.368 67.7729 24.32 68.1249 24.224C68.4929 24.112 68.8609 23.92 69.2289 23.648C69.5969 23.36 69.9409 22.96 70.2609 22.448L70.6929 22.592C70.5009 23.2 70.1969 23.792 69.7809 24.368C69.3649 24.944 68.8369 25.416 68.1969 25.784C67.5569 26.152 66.7889 26.336 65.8929 26.336C64.8049 26.336 63.8449 26.104 63.0129 25.64C62.1809 25.176 61.5249 24.472 61.0449 23.528C60.5809 22.584 60.3489 21.384 60.3489 19.928C60.3489 18.44 60.5969 17.2 61.0929 16.208C61.6049 15.216 62.3009 14.48 63.1809 14C64.0769 13.504 65.0929 13.256 66.2289 13.256ZM80.9181 13.256C81.5901 13.256 82.1341 13.344 82.5501 13.52C82.9821 13.68 83.3181 13.904 83.5581 14.192C83.8141 14.496 83.9981 14.888 84.1101 15.368C84.2381 15.848 84.3021 16.496 84.3021 17.312V23.768C84.3021 24.44 84.4141 24.896 84.6381 25.136C84.8781 25.376 85.2781 25.496 85.8381 25.496V26C85.5341 25.984 85.0781 25.968 84.4701 25.952C83.8621 25.92 83.2621 25.904 82.6701 25.904C82.0621 25.904 81.4621 25.92 80.8701 25.952C80.2941 25.968 79.8541 25.984 79.5501 26V25.496C80.0301 25.496 80.3661 25.376 80.5581 25.136C80.7501 24.896 80.8461 24.44 80.8461 23.768V16.304C80.8461 15.904 80.8061 15.56 80.7261 15.272C80.6461 14.968 80.5021 14.736 80.2941 14.576C80.0861 14.4 79.7741 14.312 79.3581 14.312C78.9261 14.312 78.5261 14.432 78.1581 14.672C77.8061 14.912 77.5181 15.248 77.2941 15.68C77.0861 16.096 76.9821 16.568 76.9821 17.096V23.768C76.9821 24.44 77.0781 24.896 77.2701 25.136C77.4781 25.376 77.8141 25.496 78.2781 25.496V26C77.9901 25.984 77.5661 25.968 77.0061 25.952C76.4621 25.92 75.8941 25.904 75.3021 25.904C74.6941 25.904 74.0701 25.92 73.4301 25.952C72.7901 25.968 72.3101 25.984 71.9901 26V25.496C72.5501 25.496 72.9421 25.376 73.1661 25.136C73.4061 24.896 73.5261 24.44 73.5261 23.768V16.208C73.5261 15.488 73.4141 14.96 73.1901 14.624C72.9821 14.272 72.5821 14.096 71.9901 14.096V13.592C72.5021 13.64 72.9981 13.664 73.4781 13.664C74.1501 13.664 74.7741 13.64 75.3501 13.592C75.9421 13.528 76.4861 13.44 76.9821 13.328V15.488C77.3821 14.672 77.9261 14.096 78.6141 13.76C79.3021 13.424 80.0701 13.256 80.9181 13.256ZM99.9898 9.008V9.488C99.4778 9.504 99.0858 9.568 98.8138 9.68C98.5578 9.776 98.3898 9.968 98.3098 10.256C98.2298 10.528 98.1898 10.96 98.1898 11.552V23.456C98.1898 24.032 98.2298 24.464 98.3098 24.752C98.4058 25.04 98.5818 25.232 98.8378 25.328C99.0938 25.424 99.4778 25.488 99.9898 25.52V26C99.5578 25.968 99.0138 25.952 98.3578 25.952C97.7018 25.936 97.0378 25.928 96.3658 25.928C95.5818 25.928 94.8538 25.936 94.1818 25.952C93.5258 25.952 92.9898 25.968 92.5738 26V25.52C93.0858 25.488 93.4698 25.424 93.7258 25.328C93.9818 25.232 94.1498 25.04 94.2298 24.752C94.3258 24.464 94.3738 24.032 94.3738 23.456V11.552C94.3738 10.96 94.3258 10.528 94.2298 10.256C94.1498 9.968 93.9738 9.776 93.7018 9.68C93.4458 9.568 93.0698 9.504 92.5738 9.488V9.008C92.9898 9.024 93.5258 9.04 94.1818 9.056C94.8538 9.072 95.5818 9.08 96.3658 9.08C97.0378 9.08 97.7018 9.072 98.3578 9.056C99.0138 9.04 99.5578 9.024 99.9898 9.008ZM116.189 9.008C116.125 9.824 116.077 10.608 116.045 11.36C116.029 12.112 116.021 12.688 116.021 13.088C116.021 13.44 116.029 13.776 116.045 14.096C116.061 14.416 116.077 14.688 116.093 14.912H115.541C115.285 13.568 114.957 12.504 114.557 11.72C114.173 10.936 113.709 10.384 113.165 10.064C112.621 9.728 111.981 9.56 111.245 9.56H110.693V23.264C110.693 23.904 110.757 24.384 110.885 24.704C111.029 25.024 111.285 25.24 111.653 25.352C112.021 25.448 112.557 25.504 113.261 25.52V26C112.765 25.984 112.101 25.968 111.269 25.952C110.453 25.936 109.597 25.928 108.701 25.928C107.821 25.928 106.989 25.936 106.205 25.952C105.421 25.968 104.789 25.984 104.309 26V25.52C105.029 25.504 105.573 25.448 105.941 25.352C106.309 25.24 106.557 25.024 106.685 24.704C106.813 24.384 106.877 23.904 106.877 23.264V9.56H106.349C105.613 9.56 104.973 9.728 104.429 10.064C103.885 10.384 103.421 10.936 103.037 11.72C102.653 12.488 102.317 13.552 102.029 14.912H101.477C101.509 14.688 101.525 14.416 101.525 14.096C101.541 13.776 101.549 13.44 101.549 13.088C101.549 12.688 101.533 12.112 101.501 11.36C101.485 10.608 101.445 9.824 101.381 9.008C102.117 9.024 102.917 9.04 103.781 9.056C104.661 9.072 105.541 9.08 106.421 9.08C107.301 9.08 108.093 9.08 108.797 9.08C109.517 9.08 110.309 9.08 111.173 9.08C112.053 9.08 112.933 9.072 113.813 9.056C114.693 9.04 115.485 9.024 116.189 9.008Z" fill="black"/>
<circle cx="16" cy="16" r="11" fill="#D9D9D9"/>
</svg>
